# AST/ASF file generated using VICON BodyLanguage
# -----------------------------------------------
:version 1.10
:name VICON
:units
  mass 1.0
  length 0.45
  angle deg
:documentation
   .ast/.asf automatically generated from VICON data using
   VICON BodyBuilder and BodyLanguage model FoxedUp or BRILLIANT.MOD
:root
   order TX TY TZ RX RY RZ
   axis XYZ
   position 0 0 0  
   orientation 0 0 0 
:bonedata
  begin
     id 1 
     name lhipjoint
     direction 0.612567 -0.751349 0.245431 
     length 2.42285 
     axis 0 0 0  XYZ
  end
  begin
     id 2 
     name lfemur
     direction 0.34202 -0.939693 0  
     length 7.11304  
     axis 0 0 20  XYZ
    dof rx ry rz
    limits (-160.0 20.0)
           (-70.0 70.0)
           (-60.0 70.0)
  end
  begin
     id 3 
     name ltibia
     direction 0.34202 -0.939693 0   
     length 7.84529   
     axis 0 0 20   XYZ
    dof rx
    limits (-10.0 170.0)
  end
  begin
     id 4 
     name lfoot
     direction 0.0779239 -0.214094 0.9737   
     length 1.97176   
     axis -90 7.62852e-016 20   XYZ
    dof rx rz
    limits (-45.0 90.0)
           (-70.0 20.0)
  end
  begin
     id 5 
     name ltoes
     direction 1.53565e-011 -4.21709e-011 1   
     length 0.993197   
     axis -90 7.62852e-016 20   XYZ
    dof rx
    limits (-90.0 20.0)
  end
  begin
     id 6 
     name rhipjoint
     direction -0.665722 -0.709315 0.231701   
     length 2.56642  
     axis 0 0 0  XYZ 
  end
  begin
     id 7 
     name rfemur
     direction -0.34202 -0.939693 0   
     length 7.32108   
     axis 0 0 -20   XYZ
    dof rx ry rz
    limits (-160.0 20.0)
           (-70.0 70.0)
           (-70.0 60.0)
  end
  begin
     id 8 
     name rtibia
     direction -0.34202 -0.939693 0   
     length 7.81254   
     axis 0 0 -20   XYZ
    dof rx
    limits (-10.0 170.0)
 end
 begin
     id 9 
     name rfoot
     direction -0.0832806 -0.228812 0.969902   
     length 2.08278  
     axis -90 -7.62852e-016 -20   XYZ
    dof rx rz
    limits (-45.0 90.0)
           (-20.0 70.0)
  end
  begin
     id 10 
     name rtoes
     direction -1.53589e-011 -4.22086e-011 1   
     length 1.04609   
     axis -90 -7.62852e-016 -20   XYZ
    dof rx
    limits (-90.0 20.0)
  end
  begin
     id 11 
     name lowerback
     direction -0.00506013 0.988403 -0.151766   
     length 2.01978   
     axis 0 0 0   XYZ
    dof rx ry rz
    limits (-20.0 45.0)
           (-30.0 30.0)
           (-30.0 30.0)
  end
  begin
     id 12 
     name upperback
     direction -0.00836389 0.99968 0.0238859   
     length 2.01276   
     axis 0 0 0   XYZ
    dof rx ry rz
    limits (-20.0 45.0)
           (-30.0 30.0)
           (-30.0 30.0)
  end
  begin
     id 13 
     name thorax
     direction -0.00684136 0.995386 0.0957043   
     length 2.07303   
     axis 0 0 0   XYZ
    dof rx ry rz
    limits (-20.0 45.0)
           (-30.0 30.0)
           (-30.0 30.0)
  end
  begin
     id 14 
     name lowerneck
     direction -0.0161045 0.999661 0.0204485   
     length 1.91243   
     axis 0 0 0   XYZ
    dof rx ry rz
    limits (-20.0 45.0)
           (-30.0 30.0)
           (-30.0 30.0)
  end
  begin
     id 15 
     name upperneck
     direction 0.0553583 0.990946 -0.122319   
     length 1.91574   
     axis 0 0 0   XYZ
    dof rx ry rz
    limits (-20.0 45.0)
           (-30.0 30.0)
           (-30.0 30.0)
  end
  begin
     id 16
     name head
     direction 0.0180273 0.998839 -0.0446756  
     length 1.92693  
     axis 0 0 0   XYZ
    dof rx ry rz
    limits (-20.0 45.0)
           (-30.0 30.0)
           (-30.0 30.0)
  end
  begin
     id 17 
     name lclavicle
     direction 0.945646 0.319323 -0.0615358  
     length 4.0076  
     axis 0 0 0   XYZ
    dof ry rz
    limits (-20.0 10.0)
           (0.0 20.0)
  end
  begin
     id 18 
     name lhumerus
     direction 1 -4.48967e-011 -2.79996e-027   
     length 5.64147   
     axis 180 -30 -90   XYZ
    dof rx ry rz
    limits (-60.0 90.0)
           (-90.0 90.0)
           (-90.0 90.0)
  end
  begin
     id 19
     name lradius
     direction 1 -4.48976e-011 -9.5122e-027   
     length 2.86444   
     axis 180 -30 -90   XYZ
    dof rx
    limits (-10.0 170.0)
  end
  begin
     id 20
     name lwrist
     direction 1 -4.48983e-011 -1.24047e-026   
     length 1.43222   
     axis 9.05591e-015 90 90   XYZ
    dof ry
    limits (-180.0 0.0)
 end
  begin
     id 21 
     name lhand
     direction 1 -4.4892e-011 -2.48094e-026   
     length 0.722123   
     axis 1.58305e-014 90 90   XYZ
    dof rx rz
    limits (-90.0 90.0)
           (-45.0 45.0)
  end
  begin
     id 22 
     name lfingers
     direction 1 -4.48895e-011 -4.96187e-026   
     length 0.582194   
     axis 3.1661e-014 90 90   XYZ
    dof rx
    limits (0.0 90.0)
  end
  begin
     id 23
     name lthumb
     direction 0.707107 -6.34961e-011 0.707107   
     length 0.835918   
     axis -90 45 2.85299e-015   XYZ
    dof rx rz
    limits (-45.0 45.0)
           (-45.0 45.0)
  end
  begin
     id 24 
     name rclavicle
     direction -0.932635 0.324218 -0.15835   
     length 3.65819  
     axis 0 0 0   XYZ 
    dof ry rz
    limits (-10.0 20.0)
           (-20.0 0.0)
  end
  begin
     id 25 
     name rhumerus
     direction -1 -4.48965e-011 -4.02296e-027  
     length 5.44729   
     axis 180 30 90   XYZ
    dof rx ry rz
    limits (-90.0 60.0)
           (-90.0 90.0)
           (-90.0 90.0)
  end
  begin
     id 26 
     name rradius
     direction -1 -4.48957e-011 -8.81087e-027   
     length 3.08821   
     axis 180 30 90   XYZ
    dof rx
    limits (-10.0 170.0)
  end
  begin
     id 27 
     name rwrist
     direction -1 -4.49015e-011 -1.24047e-026   
     length 1.5441   
     axis 9.05591e-015 -90 -90   XYZ
    dof ry
    limits (-180.0 0.0)
  end
  begin
     id 28
     name rhand
     direction -1 -4.4891e-011 -2.48094e-026   
     length 0.821049   
     axis 1.58305e-014 -90 -90   XYZ
    dof rx rz
    limits (-90.0 90.0)
           (-45.0 45.0)
  end
  begin
     id 29
     name rfingers
     direction -1 -4.48985e-011 -4.96187e-026   
     length 0.661951   
     axis 3.1661e-014 -90 -90   XYZ
    dof rx
    limits (0.0 90.0)
  end
  begin
     id 30
     name rthumb
     direction -0.707107 -6.34906e-011 0.707107   
     length 0.950433   
     axis -90 -45 -2.85299e-015   XYZ
    dof rx rz
    limits (-45.0 45.0)
           (-45.0 45.0)
  end
:hierarchy
  begin
    root lhipjoint rhipjoint lowerback
    lhipjoint lfemur
    lfemur ltibia
    ltibia lfoot
    lfoot ltoes
    rhipjoint rfemur
    rfemur rtibia
    rtibia rfoot
    rfoot rtoes
    lowerback upperback
    upperback thorax
    thorax lowerneck lclavicle rclavicle
    lowerneck upperneck
    upperneck head
    lclavicle lhumerus
    lhumerus lradius
    lradius lwrist
    lwrist lhand lthumb
    lhand lfingers
    rclavicle rhumerus
    rhumerus rradius
    rradius rwrist
    rwrist rhand rthumb
    rhand rfingers
  end

#!OML:ASF F:\VICON\USERDATA\INSTALL\rory3\rory3.ASF
:FULLY-SPECIFIED
:DEGREES
2332
root 3.357 17.7049 0.18581 543.601 89.17 545.04
lowerback 7.16579 0.575975 2.6226
upperback 0.865272 0.963764 -0.899114
thorax -3.06491 0.453095 -2.49699
lowerneck -1.92897 -5.27853 -4.75311
upperneck -3.39794 -6.76339 8.49864
head -0.249852 -3.34749 3.51703
rclavicle -6.06914e-015 7.45443e-015
rhumerus -16.8157 26.0824 -67.5375
rradius 108.642
rwrist 37.2375
rhand -43.9044 24.9628
rfingers 7.12502
rthumb -16.7291 -4.33642
lclavicle -6.06914e-015 7.45443e-015
lhumerus -9.92638 -34.1575 75.1749
lradius 102.912
lwrist 13.0995
lhand -37.2466 -36.1171
lfingers 7.12502
lthumb -10.3125 -6.38993
rfemur 2.02953 0.216077 18.9835
rtibia 14.7146
rfoot -18.4497 -8.30186
rtoes -10.6745
lfemur 1.95488 -0.383212 -16.3043
ltibia 9.25458
lfoot -9.81928 -0.161829
ltoes -3.93135
2333
root 3.34548 17.7032 0.186649 545.955 89.1374 547.505
lowerback 7.26635 0.5713 2.68841
upperback 0.86934 0.965589 -0.902647
thorax -3.11566 0.452579 -2.53965
lowerneck -1.90087 -5.30954 -4.80844
upperneck -3.1861 -6.81988 8.5223
head -0.180099 -3.37469 3.53105
rclavicle -7.36124e-015 3.27995e-015
rhumerus -15.3738 25.8412 -67.4021
rradius 106.584
rwrist 37.0235
rhand -44.0895 25.9617
rfingers 7.12502
rthumb -16.9074 -3.32233
lclavicle -7.36124e-015 3.27995e-015
lhumerus -8.34784 -33.9451 74.8588
lradius 100.645
lwrist 13.1301
lhand -36.8509 -35.7573
lfingers 7.12502
lthumb -9.9308 -6.01159
rfemur 2.10408 0.242907 19.0323
rtibia 14.7275
rfoot -18.4946 -8.24969
rtoes -10.0876
lfemur 1.98874 -0.420437 -16.2617
ltibia 9.31016
lfoot -9.81979 -0.108358
ltoes -4.37265
2334
root 3.33184 17.7015 0.187711 550.276 89.0915 551.957
lowerback 7.35369 0.566408 2.77774
upperback 0.883335 0.969224 -0.894468
thorax -3.14844 0.453178 -2.58328
lowerneck -1.8092 -5.34641 -4.80185
upperneck -3.02239 -6.88516 8.47816
head -0.141201 -3.40867 3.51303
rclavicle 1.71576e-014 -3.67752e-015
rhumerus -13.8531 25.6277 -67.2897
rradius 104.281
rwrist 36.8897
rhand -44.4993 26.1992
rfingers 7.12502
rthumb -17.3018 -3.05063
lclavicle 1.71576e-014 -3.67752e-015
lhumerus -6.57917 -33.7422 74.5242
lradius 98.1305
lwrist 13.34
lhand -36.7286 -35.5078
lfingers 7.12502
lthumb -9.81281 -5.75642
rfemur 2.1924 0.243056 19.1199
rtibia 14.7491
rfoot -18.5088 -8.21795
rtoes -9.76611
lfemur 2.0559 -0.46537 -16.1798
ltibia 9.34988
lfoot -9.78689 -0.0853869
ltoes -4.77885
2335
root 3.32257 17.7007 0.187382 551.306 89.1447 553.08
lowerback 7.32098 0.578835 2.78331
upperback 0.894713 0.985201 -0.897951
thorax -3.11719 0.461764 -2.59085
lowerneck -1.68618 -5.35328 -4.83123
upperneck -2.86959 -6.9096 8.46237
head -0.11175 -3.42275 3.51369
rclavicle 2.54072e-015 -7.95139e-016
rhumerus -12.167 25.449 -67.2199
rradius 101.684
rwrist 36.7701
rhand -45.0043 25.7474
rfingers 7.12502
rthumb -17.7878 -3.45909
lclavicle 2.54072e-015 -7.95139e-016
lhumerus -4.94394 -33.473 74.2864
lradius 95.4395
lwrist 13.5403
lhand -36.7968 -35.3477
lfingers 7.12502
lthumb -9.87862 -5.59943
rfemur 2.25668 0.226284 19.1149
rtibia 14.7508
rfoot -18.4875 -8.16051
rtoes -9.64046
lfemur 2.09171 -0.416896 -16.1713
ltibia 9.43711
lfoot -9.80925 -0.0846398
ltoes -5.11011
2336
root 3.31589 17.6993 0.186575 547.959 89.2763 549.801
lowerback 7.22106 0.598601 2.67261
upperback 0.906624 0.999914 -0.896005
thorax -3.04998 0.471641 -2.5259
lowerneck -1.55839 -5.33324 -4.8453
upperneck -2.72002 -6.89876 8.40149
head -0.08912 -3.4195 3.49698
rclavicle 6.1996e-015 -2.28602e-015
rhumerus -10.2718 25.2618 -67.1088
rradius 98.8602
rwrist 36.5163
rhand -44.792 25.7811
rfingers 7.12502
rthumb -17.5835 -3.44382
lclavicle 6.1996e-015 -2.28602e-015
lhumerus -3.34627 -33.0738 74.1463
lradius 92.5508
lwrist 13.6739
lhand -36.8775 -34.9842
lfingers 7.12502
lthumb -9.95644 -5.23962
rfemur 2.2834 0.23062 19.0202
rtibia 14.7677
rfoot -18.4249 -8.04848
rtoes -9.79742
lfemur 2.13976 -0.299868 -16.2435
ltibia 9.48643
lfoot -9.84567 -0.0934742
ltoes -4.92107
2337
root 3.3075 17.699 0.185885 557.47 89.4447 559.338
lowerback 7.09751 0.621005 2.6975
upperback 0.888248 1.02893 -0.858461
thorax -2.99837 0.486232 -2.50168
lowerneck -1.36621 -5.28776 -4.83877
upperneck -2.58425 -6.85574 8.30723
head -0.0865904 -3.40191 3.46804
rclavicle -9.10682e-015 3.57812e-015
rhumerus -8.35712 25.1067 -66.9932
rradius 95.929
rwrist 36.3029
rhand -44.0027 26.1586
rfingers 7.12502
rthumb -16.8238 -3.13254
lclavicle -9.10682e-015 3.57812e-015
lhumerus -1.70846 -32.6128 74.0165
lradius 89.478
lwrist 13.9194
lhand -36.8807 -34.8051
lfingers 7.12502
lthumb -9.95957 -5.06071
rfemur 2.22982 0.300417 19.0823
rtibia 14.7883
rfoot -18.3104 -8.04125
rtoes -10.2242
lfemur 2.16257 -0.115686 -16.1671
ltibia 9.50493
lfoot -9.87834 -0.106574
ltoes -4.66657
2338
root 3.29525 17.6986 0.186455 558.686 89.4757 560.657
lowerback 7.11326 0.597184 2.64679
upperback 0.861889 0.994509 -0.826428
thorax -3.03803 0.468666 -2.43731
lowerneck -1.18466 -5.25411 -4.84853
upperneck -2.37754 -6.83262 8.19904
head -0.0580915 -3.39337 3.43528
rclavicle 6.02566e-015 9.54166e-015
rhumerus -6.4356 24.9603 -66.9182
rradius 92.7997
rwrist 36.1912
rhand -43.3414 26.3429
rfingers 7.12502
rthumb -16.1871 -3.00129
lclavicle 6.02566e-015 9.54166e-015
lhumerus -0.0557324 -32.1871 73.8937
lradius 86.3242
lwrist 14.5251
lhand -36.6864 -34.817
lfingers 7.12502
lthumb -9.7721 -5.06378
rfemur 2.25733 0.370277 19.0995
rtibia 14.8593
rfoot -18.3301 -8.0858
rtoes -10.3198
lfemur 2.26883 -0.0899512 -16.1634
ltibia 9.44964
lfoot -9.82384 -0.127543
ltoes -4.2221
